<?xml version="1.0" encoding="iso-8859-1"?>
<!-- Generator: Adobe Illustrator 24.3.0, SVG Export Plug-In . SVG Version: 6.00 Build 0)  -->
<svg version="1.1" id="Layer_1" xmlns="http://www.w3.org/2000/svg" xmlns:xlink="http://www.w3.org/1999/xlink" x="0px" y="0px"
	 viewBox="0 0 500 500" style="enable-background:new 0 0 500 500;" xml:space="preserve">
<g id="watermark_1_">
	<g>
		<g id="watermark" style="opacity:0.61;">
			<g>
				<g>
					<g>
						<g>
							<polygon style="fill:#FFFFFF;" points="213.765,461.172 208.204,474.017 205.268,474.017 199.726,461.172 202.938,461.172 
								206.846,470.347 210.81,461.172 							"/>
						</g>
						<g>
							<path style="fill:#FFFFFF;" d="M223.507,469.741h-7.469c0.275,1.23,1.321,1.982,2.826,1.982c1.046,0,1.798-0.312,2.477-0.954
								l1.523,1.651c-0.917,1.046-2.294,1.597-4.074,1.597c-3.413,0-5.634-2.147-5.634-5.083c0-2.954,2.257-5.083,5.267-5.083
								c2.899,0,5.138,1.945,5.138,5.12C223.562,469.191,223.526,469.503,223.507,469.741 M216.002,468.071h4.863
								c-0.202-1.248-1.138-2.055-2.422-2.055C217.139,466.016,216.204,466.805,216.002,468.071"/>
						</g>
						<g>
							<path style="fill:#FFFFFF;" d="M224.735,468.934c0-2.973,2.294-5.083,5.505-5.083c2.074,0,3.707,0.899,4.423,2.514
								l-2.22,1.193c-0.532-0.936-1.321-1.358-2.221-1.358c-1.45,0-2.587,1.009-2.587,2.734c0,1.725,1.138,2.734,2.587,2.734
								c0.899,0,1.688-0.404,2.221-1.358l2.22,1.211c-0.716,1.578-2.349,2.495-4.423,2.495
								C227.029,474.017,224.735,471.907,224.735,468.934"/>
						</g>
						<g>
							<path style="fill:#FFFFFF;" d="M242.828,473.393c-0.587,0.422-1.45,0.624-2.331,0.624c-2.33,0-3.688-1.193-3.688-3.542
								v-4.055h-1.523v-2.202h1.523v-2.404h2.863v2.404h2.459v2.202h-2.459v4.019c0,0.844,0.458,1.303,1.229,1.303
								c0.422,0,0.844-0.128,1.156-0.367L242.828,473.393z"/>
						</g>
					</g>
					<g>
						<path style="fill:#FFFFFF;" d="M262.474,463.997v2.643c-0.238-0.018-0.422-0.037-0.642-0.037
							c-1.578,0-2.624,0.862-2.624,2.753v4.661h-2.863v-9.873h2.734v1.303C259.776,464.493,260.951,463.997,262.474,463.997"/>
					</g>
					<g>
						<path style="fill:#FFFFFF;" d="M263.299,472.53l1.009-2.239c1.083,0.789,2.697,1.339,4.239,1.339
							c1.762,0,2.477-0.587,2.477-1.376c0-2.404-7.469-0.752-7.469-5.524c0-2.184,1.762-4,5.413-4c1.615,0,3.267,0.385,4.459,1.138
							l-0.918,2.257c-1.193-0.679-2.422-1.009-3.56-1.009c-1.761,0-2.44,0.66-2.44,1.468c0,2.367,7.468,0.734,7.468,5.45
							c0,2.147-1.78,3.982-5.45,3.982C266.492,474.017,264.437,473.411,263.299,472.53"/>
					</g>
					<g>
						<path style="fill:#FFFFFF;" d="M285.428,469.741h-7.469c0.275,1.23,1.321,1.982,2.826,1.982c1.046,0,1.798-0.312,2.477-0.954
							l1.523,1.651c-0.918,1.046-2.294,1.597-4.074,1.597c-3.413,0-5.634-2.147-5.634-5.083c0-2.954,2.257-5.083,5.267-5.083
							c2.9,0,5.138,1.945,5.138,5.12C285.484,469.191,285.447,469.503,285.428,469.741 M277.923,468.071h4.863
							c-0.202-1.248-1.138-2.055-2.422-2.055C279.061,466.016,278.125,466.805,277.923,468.071"/>
					</g>
					<g>
						<path style="fill:#FFFFFF;" d="M297.007,469.741h-7.469c0.275,1.23,1.321,1.982,2.826,1.982c1.046,0,1.798-0.312,2.477-0.954
							l1.523,1.651c-0.918,1.046-2.294,1.597-4.074,1.597c-3.413,0-5.634-2.147-5.634-5.083c0-2.954,2.257-5.083,5.267-5.083
							c2.899,0,5.138,1.945,5.138,5.12C297.062,469.191,297.025,469.503,297.007,469.741 M289.501,468.071h4.863
							c-0.202-1.248-1.138-2.055-2.422-2.055C290.639,466.016,289.703,466.805,289.501,468.071"/>
					</g>
					<g>
						<polygon style="fill:#FFFFFF;" points="303.208,470.145 301.831,471.503 301.831,474.017 298.969,474.017 298.969,460.401 
							301.831,460.401 301.831,468.108 306.016,464.144 309.429,464.144 305.318,468.328 309.796,474.017 306.327,474.017 						"/>
					</g>
					<g>
						<path style="fill:#FFFFFF;" d="M256.601,475.359L256.601,475.359l-2.86-2.86c-0.435,0.508-0.953,0.943-1.534,1.284
							c-0.092,0.069-0.186,0.136-0.283,0.199l3.027,3.027c0.456,0.456,1.195,0.456,1.65,0
							C257.057,476.554,257.057,475.815,256.601,475.359"/>
					</g>
					<g>
						<path style="fill:#FFFFFF;" d="M249.984,463.244c0.221-0.173,0.495-0.281,0.797-0.281c0.042,0,0.083,0.002,0.124,0.006
							c-0.214-0.156-0.478-0.249-0.764-0.249c-0.395,0-0.744,0.18-0.981,0.458c-0.051,0-0.1,0.006-0.151,0.008
							c0.039-0.077,0.064-0.162,0.064-0.255c0-0.234-0.143-0.434-0.346-0.519c0.087,0.126,0.138,0.279,0.138,0.445
							c0,0.122-0.031,0.237-0.081,0.341c-2.811,0.201-5.03,2.539-5.03,5.4c0,2.993,2.426,5.42,5.42,5.42
							c2.993,0,5.42-2.426,5.42-5.42C254.595,465.879,252.593,463.635,249.984,463.244 M247.983,464.656
							c0.435,0,0.844,0.112,1.199,0.309c0.374-0.245,0.82-0.387,1.299-0.387c0.711,0,1.348,0.312,1.784,0.806
							c-0.435-0.379-1.004-0.61-1.627-0.61c-0.449,0-0.87,0.12-1.234,0.329c-0.079,0.046-0.156,0.096-0.229,0.15
							c-0.065-0.048-0.133-0.093-0.204-0.134c-0.369-0.219-0.8-0.344-1.26-0.344c-0.3,0-0.588,0.054-0.854,0.152
							C247.196,464.754,247.578,464.656,247.983,464.656 M251.772,469.098c0.115,0.305,0.181,0.634,0.181,0.979
							c0,1.534-1.244,2.777-2.778,2.777c-1.534,0-2.777-1.243-2.777-2.777c0-0.345,0.066-0.674,0.181-0.979
							c-0.62-0.382-1.035-1.064-1.035-1.846c0-1.197,0.971-2.168,2.168-2.168c0.565,0,1.078,0.218,1.463,0.572
							c0.386-0.354,0.899-0.572,1.464-0.572c1.197,0,2.168,0.971,2.168,2.168C252.807,468.034,252.392,468.716,251.772,469.098"/>
					</g>
					<g>
						<path style="fill:#FFFFFF;" d="M251.666,467.061c0,0.497-0.404,0.901-0.901,0.901c-0.497,0-0.901-0.404-0.901-0.901
							s0.404-0.901,0.901-0.901c0.101,0,0.197,0.017,0.287,0.047c-0.03,0.062-0.045,0.132-0.045,0.204
							c0,0.273,0.221,0.494,0.494,0.494c0.05,0,0.099-0.008,0.146-0.022C251.66,466.941,251.666,467,251.666,467.061"/>
					</g>
					<g>
						<path style="fill:#FFFFFF;" d="M248.255,467.061c0,0.376-0.305,0.681-0.681,0.681c-0.376,0-0.681-0.305-0.681-0.681
							s0.305-0.681,0.681-0.681c0.076,0,0.149,0.013,0.217,0.035c-0.023,0.047-0.034,0.1-0.034,0.155
							c0,0.206,0.167,0.374,0.374,0.374c0.038,0,0.075-0.006,0.11-0.017C248.25,466.97,248.255,467.015,248.255,467.061"/>
					</g>
					<g>
						<g>
							<g>
								<rect x="242.908" y="467.83" style="fill:#FFFFFF;" width="0.616" height="0.616"/>
							</g>
							<g>
								<rect x="254.827" y="467.83" style="fill:#FFFFFF;" width="0.616" height="0.616"/>
							</g>
							<g>
								<path style="fill:#FFFFFF;" d="M255.205,468.082h-0.14c0-3.248-2.642-5.89-5.89-5.89c-3.248,0-5.89,2.642-5.89,5.89h-0.14
									c0-1.611,0.627-3.125,1.766-4.264c1.139-1.139,2.653-1.766,4.264-1.766c1.611,0,3.125,0.627,4.264,1.766
									C254.578,464.957,255.205,466.471,255.205,468.082"/>
							</g>
						</g>
						<g>
							<rect x="248.868" y="461.814" style="fill:#FFFFFF;" width="0.616" height="0.616"/>
						</g>
						<g>
							<rect x="244.95" y="462.052" style="fill:#FFFFFF;" width="8.45" height="0.14"/>
						</g>
						<g>
							<path style="fill:#FFFFFF;" d="M245.174,462.15c0,0.108-0.088,0.196-0.196,0.196c-0.108,0-0.196-0.088-0.196-0.196
								c0-0.108,0.088-0.196,0.196-0.196C245.086,461.954,245.174,462.042,245.174,462.15"/>
						</g>
						<g>
							<path style="fill:#FFFFFF;" d="M253.596,462.15c0,0.108-0.088,0.196-0.196,0.196c-0.108,0-0.196-0.088-0.196-0.196
								c0-0.108,0.088-0.196,0.196-0.196C253.509,461.954,253.596,462.042,253.596,462.15"/>
						</g>
					</g>
				</g>
				<g>
					<path style="fill:#FFFFFF;" d="M314.356,473.409c0,1.559-2.364,1.559-2.364,0C311.993,471.851,314.356,471.851,314.356,473.409
						z"/>
				</g>
				<g>
					<g>
						<g>
							<path style="fill:#FFFFFF;" d="M161.739,466.549l1.772,6.088l1.855-6.088h2.215l-2.823,8.14h-2.33l-0.837-2.396l-0.722-2.708
								l-0.722,2.708l-0.837,2.396h-2.33l-2.839-8.14h2.231l1.855,6.088l1.756-6.088H161.739z"/>
						</g>
						<g>
							<path style="fill:#FFFFFF;" d="M176.713,466.549l1.772,6.088l1.855-6.088h2.215l-2.823,8.14h-2.33l-0.837-2.396l-0.722-2.708
								l-0.722,2.708l-0.837,2.396h-2.33l-2.839-8.14h2.231l1.855,6.088l1.756-6.088H176.713z"/>
						</g>
						<g>
							<path style="fill:#FFFFFF;" d="M191.687,466.549l1.772,6.088l1.855-6.088h2.215l-2.823,8.14h-2.33l-0.837-2.396l-0.722-2.708
								l-0.722,2.708l-0.837,2.396h-2.33l-2.839-8.14h2.231l1.855,6.088l1.756-6.088H191.687z"/>
						</g>
					</g>
					<g>
						<path style="fill:#FFFFFF;" d="M200.908,473.52c0,1.559-2.364,1.559-2.364,0C198.545,471.962,200.908,471.962,200.908,473.52z
							"/>
					</g>
					<g>
						<path style="fill:#FFFFFF;" d="M322.71,473.409c-0.935,0.919-1.919,1.28-3.117,1.28c-2.346,0-4.3-1.411-4.3-4.282
							s1.953-4.284,4.3-4.284c1.149,0,2.035,0.329,2.921,1.199l-1.264,1.329c-0.476-0.428-1.066-0.64-1.623-0.64
							c-1.346,0-2.33,0.985-2.33,2.396c0,1.542,1.05,2.362,2.297,2.362c0.64,0,1.28-0.18,1.772-0.672L322.71,473.409z"/>
					</g>
					<g>
						<path style="fill:#FFFFFF;" d="M331.805,470.472c0,2.33-1.591,4.217-4.217,4.217c-2.626,0-4.201-1.887-4.201-4.217
							c0-2.314,1.609-4.217,4.185-4.217C330.149,466.255,331.805,468.158,331.805,470.472z M325.389,470.472
							c0,1.231,0.739,2.38,2.199,2.38c1.46,0,2.199-1.149,2.199-2.38c0-1.215-0.854-2.396-2.199-2.396
							C326.144,468.077,325.389,469.258,325.389,470.472z"/>
					</g>
					<g>
						<path style="fill:#FFFFFF;" d="M338.572,474.689v-4.332c0-1.068-0.559-2.035-1.658-2.035c-1.082,0-1.722,0.967-1.722,2.035
							v4.332h-2.003v-8.107h1.855l0.148,0.985c0.426-0.82,1.362-1.116,2.133-1.116c0.969,0,1.937,0.394,2.396,1.51
							c0.723-1.149,1.658-1.478,2.708-1.478c2.297,0,3.43,1.412,3.43,3.84v4.365h-2.003v-4.365c0-1.066-0.442-1.97-1.526-1.97
							c-1.082,0-1.756,0.935-1.756,2.003v4.332H338.572z"/>
					</g>
				</g>
			</g>
		</g>
		<g style="opacity:0.61;">
			<g>
				<g>
					<path style="fill:#FFFFFF;" d="M345.988,431.299c-0.006-1.224-0.959-2.121-2.189-2.14c-0.924-0.014-0.832,0.12-0.834-0.867
						c-0.003-1.097-0.007-2.194,0.003-3.292c0.003-0.379-0.112-0.691-0.362-0.976c-2.342-2.668-4.678-5.342-7.019-8.011
						c-0.12-0.137-0.275-0.244-0.414-0.366c-6.214,0-12.427,0-18.641,0c-0.794,0.293-1.14,0.868-1.138,1.709
						c0.01,3.748,0.004,7.496,0.004,11.243c0,0.556-0.003,0.589-0.55,0.551c-1.497-0.102-2.516,0.986-2.497,2.492
						c0.044,3.476,0.013,6.953,0.014,10.429c0.001,1.58,0.867,2.443,2.45,2.449c0.582,0.002,0.582,0.002,0.582,0.6
						c0,2.219-0.001,4.438,0.001,6.657c0.001,1.192,0.58,1.771,1.768,1.771c8.013,0.001,16.027,0.001,24.04,0
						c1.168,0,1.755-0.583,1.757-1.745c0.002-2.256,0-4.512,0.001-6.768c0-0.512,0.002-0.511,0.52-0.515
						c0.271-0.002,0.541,0.008,0.809-0.058c0.996-0.246,1.69-1.044,1.694-2.069C346.003,438.696,346.005,434.997,345.988,431.299z
						 M317.537,417.162c5.337,0,10.674,0,16.01,0c0.548,0,0.554,0.007,0.554,0.561c0.001,2.243-0.001,4.486,0.001,6.73
						c0.001,0.811,0.249,1.059,1.06,1.059c1.91,0.001,3.821,0,5.731,0.001c0.458,0,0.479,0.021,0.481,0.483
						c0.003,0.887,0.002,1.775,0,2.662c-0.001,0.477-0.024,0.498-0.504,0.499c-3.895,0.001-7.79,0-11.684,0
						c-3.882,0-7.765,0-11.647,0c-0.55,0-0.552-0.001-0.552-0.561c-0.001-3.624-0.001-7.247,0-10.871
						C316.987,417.166,316.991,417.162,317.537,417.162z M340.822,451.579c-3.883,0.001-7.766,0-11.65,0c-3.871,0-7.742,0-11.613,0
						c-0.572,0-0.574-0.002-0.574-0.579c-0.001-1.997-0.001-3.994,0.001-5.991c0-0.464,0.023-0.486,0.478-0.487
						c7.803-0.001,15.607-0.001,23.41,0c0.478,0,0.499,0.02,0.499,0.503c0.002,1.997,0.001,3.994,0,5.991
						C341.375,451.574,341.37,451.579,340.822,451.579z"/>
				</g>
				<g>
					<g>
						<rect x="327.418" y="417.053" style="fill:#FFFFFF;" width="1.757" height="1.054"/>
					</g>
					<g>
						<rect x="325.662" y="418.107" style="fill:#FFFFFF;" width="1.757" height="1.054"/>
					</g>
					<g>
						<rect x="327.418" y="419.161" style="fill:#FFFFFF;" width="1.757" height="1.054"/>
					</g>
					<g>
						<rect x="325.662" y="420.215" style="fill:#FFFFFF;" width="1.757" height="1.054"/>
					</g>
					<g>
						<rect x="327.418" y="421.269" style="fill:#FFFFFF;" width="1.757" height="1.054"/>
					</g>
					<g>
						<rect x="325.662" y="422.323" style="fill:#FFFFFF;" width="1.757" height="1.054"/>
					</g>
					<g>
						<rect x="327.418" y="423.378" style="fill:#FFFFFF;" width="1.757" height="1.054"/>
					</g>
					<g>
						<rect x="325.662" y="424.432" style="fill:#FFFFFF;" width="1.757" height="1.054"/>
					</g>
					<g>
						<rect x="327.418" y="425.486" style="fill:#FFFFFF;" width="1.757" height="1.054"/>
					</g>
					<g>
						<rect x="325.662" y="426.54" style="fill:#FFFFFF;" width="1.757" height="1.054"/>
					</g>
					<g>
						<rect x="327.418" y="427.594" style="fill:#FFFFFF;" width="1.757" height="1.054"/>
					</g>
					<g>
						<rect x="325.662" y="428.648" style="fill:#FFFFFF;" width="1.757" height="1.054"/>
					</g>
				</g>
			</g>
			<g>
				<path style="fill:#FFFFFF;" d="M187.637,431.299c-0.006-1.224-0.959-2.121-2.189-2.14c-0.924-0.014-0.832,0.12-0.834-0.867
					c-0.003-1.097-0.007-2.194,0.003-3.292c0.003-0.379-0.112-0.691-0.362-0.976c-2.342-2.668-4.678-5.342-7.019-8.011
					c-0.12-0.137-0.275-0.244-0.414-0.366c-6.214,0-12.427,0-18.641,0c-0.794,0.293-1.14,0.868-1.138,1.709
					c0.01,3.748,0.004,7.496,0.004,11.243c0,0.556-0.003,0.589-0.55,0.551c-1.497-0.102-2.516,0.986-2.497,2.492
					c0.044,3.476,0.013,6.953,0.014,10.429c0.001,1.58,0.867,2.443,2.45,2.449c0.582,0.002,0.582,0.002,0.582,0.6
					c0,2.219-0.001,4.438,0.001,6.657c0.001,1.192,0.58,1.771,1.768,1.771c8.013,0.001,16.027,0.001,24.04,0
					c1.168,0,1.755-0.583,1.757-1.745c0.002-2.256,0-4.512,0.001-6.768c0-0.512,0.002-0.511,0.52-0.515
					c0.271-0.002,0.541,0.008,0.809-0.058c0.996-0.246,1.69-1.044,1.694-2.069C187.652,438.696,187.655,434.997,187.637,431.299z
					 M159.187,417.162c5.337,0,10.674,0,16.01,0c0.548,0,0.554,0.007,0.554,0.561c0.001,2.243-0.001,4.486,0.001,6.73
					c0.001,0.811,0.249,1.059,1.06,1.059c1.91,0.001,3.821,0,5.731,0.001c0.458,0,0.479,0.021,0.481,0.483
					c0.003,0.887,0.002,1.775,0,2.662c-0.001,0.477-0.024,0.498-0.504,0.499c-3.895,0.001-7.79,0-11.684,0
					c-3.882,0-7.765,0-11.647,0c-0.55,0-0.552-0.001-0.552-0.561c-0.001-3.624-0.001-7.247,0-10.871
					C158.636,417.166,158.64,417.162,159.187,417.162z M182.472,451.579c-3.883,0.001-7.766,0-11.65,0c-3.871,0-7.742,0-11.613,0
					c-0.572,0-0.574-0.002-0.574-0.579c-0.001-1.997-0.001-3.994,0.001-5.991c0-0.464,0.023-0.486,0.478-0.487
					c7.803-0.001,15.607-0.001,23.41,0c0.478,0,0.499,0.02,0.499,0.503c0.002,1.997,0.001,3.994,0,5.991
					C183.024,451.574,183.019,451.579,182.472,451.579z"/>
			</g>
			<g>
				<path style="fill:#FFFFFF;" d="M159.779,440.669v-7.897h2.779c0.375,0,0.726,0.061,1.053,0.182
					c0.327,0.121,0.612,0.292,0.855,0.513c0.242,0.221,0.434,0.483,0.573,0.789c0.14,0.305,0.21,0.642,0.21,1.009
					c0,0.375-0.07,0.715-0.21,1.02c-0.14,0.305-0.331,0.568-0.573,0.789c-0.243,0.221-0.528,0.392-0.855,0.513
					c-0.327,0.121-0.678,0.182-1.053,0.182h-1.29v2.901H159.779z M162.58,436.356c0.39,0,0.684-0.111,0.882-0.331
					c0.199-0.22,0.298-0.474,0.298-0.761c0-0.14-0.024-0.276-0.072-0.408c-0.048-0.132-0.121-0.248-0.221-0.347
					c-0.099-0.099-0.223-0.178-0.37-0.237c-0.147-0.059-0.32-0.089-0.518-0.089h-1.312v2.173H162.58z"/>
				<path style="fill:#FFFFFF;" d="M166.308,432.771h1.731l3.177,5.294h0.088l-0.088-1.522v-3.772h1.478v7.897h-1.566l-3.353-5.592
					h-0.088l0.088,1.522v4.07h-1.467V432.771z"/>
				<path style="fill:#FFFFFF;" d="M177.922,436.334h3.872c0.022,0.089,0.04,0.195,0.055,0.32c0.014,0.125,0.022,0.25,0.022,0.375
					c0,0.507-0.077,0.985-0.231,1.434c-0.154,0.449-0.397,0.849-0.728,1.202c-0.353,0.375-0.776,0.666-1.268,0.871
					c-0.493,0.206-1.055,0.309-1.688,0.309c-0.574,0-1.114-0.103-1.622-0.309c-0.507-0.206-0.948-0.492-1.323-0.86
					c-0.375-0.367-0.673-0.803-0.894-1.307c-0.221-0.504-0.331-1.053-0.331-1.649c0-0.595,0.11-1.145,0.331-1.649
					c0.221-0.504,0.518-0.939,0.894-1.307c0.375-0.367,0.816-0.654,1.323-0.86c0.507-0.206,1.048-0.309,1.622-0.309
					c0.64,0,1.211,0.11,1.715,0.331c0.504,0.221,0.935,0.526,1.296,0.915l-1.025,1.004c-0.258-0.272-0.544-0.48-0.861-0.623
					c-0.316-0.143-0.695-0.215-1.136-0.215c-0.361,0-0.703,0.065-1.026,0.193c-0.324,0.129-0.607,0.311-0.85,0.546
					c-0.242,0.235-0.436,0.52-0.579,0.855c-0.143,0.335-0.215,0.708-0.215,1.119c0,0.412,0.072,0.785,0.215,1.12
					c0.143,0.335,0.338,0.62,0.584,0.855c0.246,0.235,0.531,0.418,0.855,0.546c0.323,0.129,0.669,0.193,1.037,0.193
					c0.419,0,0.773-0.061,1.064-0.182c0.29-0.121,0.538-0.278,0.744-0.469c0.148-0.132,0.275-0.3,0.381-0.502
					c0.106-0.202,0.189-0.428,0.248-0.678h-2.482V436.334z"/>
			</g>
			<g>
				<path style="fill:#FFFFFF;" d="M224.019,431.299c-0.006-1.224-0.959-2.121-2.189-2.14c-0.924-0.014-0.832,0.12-0.834-0.867
					c-0.003-1.097-0.007-2.194,0.003-3.292c0.003-0.379-0.112-0.691-0.362-0.976c-2.342-2.668-4.678-5.342-7.019-8.011
					c-0.12-0.137-0.275-0.244-0.414-0.366c-6.214,0-12.427,0-18.641,0c-0.794,0.293-1.14,0.868-1.138,1.709
					c0.01,3.748,0.004,7.496,0.004,11.243c0,0.556-0.003,0.589-0.55,0.551c-1.497-0.102-2.516,0.986-2.497,2.492
					c0.044,3.476,0.013,6.953,0.014,10.429c0.001,1.58,0.867,2.443,2.45,2.449c0.582,0.002,0.582,0.002,0.582,0.6
					c0,2.219-0.001,4.438,0.001,6.657c0.001,1.192,0.58,1.771,1.768,1.771c8.013,0.001,16.027,0.001,24.04,0
					c1.168,0,1.755-0.583,1.757-1.745c0.002-2.256,0-4.512,0.001-6.768c0-0.512,0.002-0.511,0.52-0.515
					c0.271-0.002,0.541,0.008,0.809-0.058c0.997-0.246,1.69-1.044,1.694-2.069C224.034,438.696,224.036,434.997,224.019,431.299z
					 M195.568,417.162c5.337,0,10.674,0,16.01,0c0.548,0,0.554,0.007,0.554,0.561c0.001,2.243-0.001,4.486,0.001,6.73
					c0.001,0.811,0.249,1.059,1.06,1.059c1.91,0.001,3.821,0,5.731,0.001c0.458,0,0.479,0.021,0.481,0.483
					c0.003,0.887,0.002,1.775,0,2.662c-0.001,0.477-0.024,0.498-0.504,0.499c-3.895,0.001-7.79,0-11.684,0
					c-3.882,0-7.765,0-11.647,0c-0.55,0-0.552-0.001-0.552-0.561c-0.001-3.624-0.001-7.247,0-10.871
					C195.018,417.166,195.022,417.162,195.568,417.162z M218.854,451.579c-3.883,0.001-7.766,0-11.65,0c-3.871,0-7.742,0-11.613,0
					c-0.572,0-0.574-0.002-0.574-0.579c-0.001-1.997-0.001-3.994,0.001-5.991c0-0.464,0.023-0.486,0.478-0.487
					c7.803-0.001,15.607-0.001,23.41,0c0.478,0,0.499,0.02,0.499,0.503c0.002,1.997,0.001,3.994,0,5.991
					C219.406,451.574,219.401,451.579,218.854,451.579z"/>
			</g>
			<g>
				<path style="fill:#FFFFFF;" d="M205.111,432.771h1.699l2.967,7.897h-1.644l-0.651-1.886h-3.044l-0.651,1.886h-1.643
					L205.111,432.771z M206.997,437.415l-0.706-1.974l-0.287-0.96h-0.088l-0.287,0.96l-0.706,1.974H206.997z"/>
				<path style="fill:#FFFFFF;" d="M211.331,434.536c-0.125,0-0.245-0.024-0.359-0.072c-0.114-0.048-0.213-0.114-0.298-0.199
					c-0.084-0.084-0.151-0.182-0.198-0.292c-0.048-0.11-0.072-0.232-0.072-0.364s0.024-0.254,0.072-0.364
					c0.048-0.11,0.114-0.208,0.198-0.292c0.084-0.084,0.184-0.151,0.298-0.198c0.114-0.048,0.233-0.072,0.359-0.072
					c0.257,0,0.478,0.09,0.662,0.27c0.184,0.181,0.276,0.399,0.276,0.656s-0.092,0.476-0.276,0.656
					C211.809,434.446,211.589,434.536,211.331,434.536z M210.615,440.669v-5.404h1.445v5.404H210.615z"/>
			</g>
			<g>
				<path style="fill:#FFFFFF;" d="M261.044,431.299c-0.006-1.224-0.959-2.121-2.189-2.14c-0.924-0.014-0.832,0.12-0.834-0.867
					c-0.003-1.097-0.007-2.194,0.003-3.292c0.003-0.379-0.112-0.691-0.362-0.976c-2.342-2.668-4.678-5.342-7.019-8.011
					c-0.12-0.137-0.275-0.244-0.414-0.366c-6.214,0-12.427,0-18.641,0c-0.794,0.293-1.14,0.868-1.138,1.709
					c0.01,3.748,0.004,7.496,0.004,11.243c0,0.556-0.003,0.589-0.55,0.551c-1.497-0.102-2.516,0.986-2.497,2.492
					c0.044,3.476,0.013,6.953,0.014,10.429c0.001,1.58,0.867,2.443,2.45,2.449c0.582,0.002,0.582,0.002,0.582,0.6
					c0,2.219-0.001,4.438,0.001,6.657c0.001,1.192,0.58,1.771,1.768,1.771c8.013,0.001,16.027,0.001,24.04,0
					c1.168,0,1.755-0.583,1.757-1.745c0.002-2.256,0-4.512,0.001-6.768c0-0.512,0.002-0.511,0.52-0.515
					c0.271-0.002,0.541,0.008,0.809-0.058c0.996-0.246,1.69-1.044,1.694-2.069C261.059,438.696,261.061,434.997,261.044,431.299z
					 M232.593,417.162c5.337,0,10.674,0,16.01,0c0.548,0,0.554,0.007,0.554,0.561c0.001,2.243-0.001,4.486,0.001,6.73
					c0.001,0.811,0.249,1.059,1.06,1.059c1.91,0.001,3.821,0,5.731,0.001c0.458,0,0.479,0.021,0.481,0.483
					c0.003,0.887,0.002,1.775,0,2.662c-0.001,0.477-0.024,0.498-0.504,0.499c-3.895,0.001-7.79,0-11.684,0
					c-3.882,0-7.765,0-11.647,0c-0.55,0-0.552-0.001-0.552-0.561c-0.001-3.624-0.001-7.247,0-10.871
					C232.042,417.166,232.047,417.162,232.593,417.162z M255.878,451.579c-3.883,0.001-7.766,0-11.65,0c-3.871,0-7.742,0-11.613,0
					c-0.572,0-0.574-0.002-0.574-0.579c-0.001-1.997-0.001-3.994,0.001-5.991c0-0.464,0.023-0.486,0.478-0.487
					c7.803-0.001,15.607-0.001,23.41,0c0.478,0,0.499,0.02,0.499,0.503c0.002,1.997,0.001,3.994,0,5.991
					C256.431,451.574,256.426,451.579,255.878,451.579z"/>
			</g>
			<g>
				<path style="fill:#FFFFFF;" d="M236.361,440.845c-0.338,0-0.662-0.048-0.971-0.143c-0.309-0.095-0.592-0.239-0.849-0.43
					c-0.257-0.191-0.481-0.425-0.673-0.7c-0.191-0.276-0.342-0.597-0.452-0.965l1.401-0.551c0.103,0.397,0.283,0.726,0.54,0.987
					c0.257,0.261,0.596,0.392,1.015,0.392c0.154,0,0.303-0.02,0.447-0.061c0.143-0.04,0.272-0.099,0.386-0.176
					s0.204-0.175,0.27-0.292c0.066-0.118,0.099-0.254,0.099-0.408c0-0.147-0.026-0.279-0.077-0.397
					c-0.051-0.117-0.138-0.227-0.259-0.331c-0.121-0.103-0.28-0.202-0.475-0.298c-0.195-0.095-0.435-0.195-0.722-0.298l-0.485-0.176
					c-0.213-0.073-0.429-0.173-0.645-0.298c-0.217-0.125-0.413-0.276-0.59-0.452c-0.177-0.176-0.322-0.384-0.436-0.623
					c-0.114-0.239-0.171-0.509-0.171-0.81c0-0.309,0.06-0.597,0.182-0.866c0.121-0.268,0.294-0.503,0.518-0.706
					c0.224-0.202,0.492-0.36,0.805-0.474s0.66-0.171,1.042-0.171c0.397,0,0.74,0.053,1.031,0.16
					c0.291,0.107,0.537,0.243,0.739,0.408c0.202,0.165,0.366,0.348,0.491,0.546c0.125,0.199,0.217,0.386,0.276,0.563l-1.312,0.551
					c-0.074-0.221-0.208-0.419-0.402-0.596c-0.195-0.176-0.462-0.265-0.8-0.265c-0.324,0-0.592,0.075-0.805,0.226
					c-0.213,0.151-0.32,0.348-0.32,0.59c0,0.235,0.103,0.436,0.309,0.601c0.206,0.165,0.533,0.325,0.982,0.48l0.497,0.165
					c0.316,0.111,0.605,0.237,0.866,0.381c0.261,0.143,0.485,0.314,0.673,0.513c0.187,0.199,0.331,0.425,0.43,0.678
					c0.1,0.254,0.149,0.546,0.149,0.877c0,0.412-0.083,0.767-0.248,1.064c-0.165,0.298-0.377,0.542-0.634,0.734
					c-0.258,0.191-0.548,0.335-0.872,0.43C236.986,440.797,236.67,440.845,236.361,440.845z"/>
				<path style="fill:#FFFFFF;" d="M239.516,432.771h1.61l1.633,4.754l0.287,1.015h0.088l0.309-1.015l1.699-4.754h1.61l-2.879,7.897
					h-1.566L239.516,432.771z"/>
				<path style="fill:#FFFFFF;" d="M251.097,436.334h3.871c0.022,0.089,0.04,0.195,0.055,0.32c0.015,0.125,0.023,0.25,0.023,0.375
					c0,0.507-0.078,0.985-0.232,1.434c-0.154,0.449-0.397,0.849-0.728,1.202c-0.353,0.375-0.775,0.666-1.268,0.871
					c-0.493,0.206-1.055,0.309-1.688,0.309c-0.574,0-1.114-0.103-1.621-0.309c-0.507-0.206-0.949-0.492-1.324-0.86
					c-0.375-0.367-0.673-0.803-0.894-1.307c-0.22-0.504-0.331-1.053-0.331-1.649c0-0.595,0.11-1.145,0.331-1.649
					c0.221-0.504,0.518-0.939,0.894-1.307c0.375-0.367,0.816-0.654,1.324-0.86c0.507-0.206,1.047-0.309,1.621-0.309
					c0.64,0,1.211,0.11,1.715,0.331c0.504,0.221,0.936,0.526,1.296,0.915l-1.026,1.004c-0.257-0.272-0.544-0.48-0.861-0.623
					c-0.316-0.143-0.694-0.215-1.136-0.215c-0.36,0-0.702,0.065-1.026,0.193c-0.323,0.129-0.607,0.311-0.849,0.546
					c-0.243,0.235-0.436,0.52-0.579,0.855c-0.143,0.335-0.215,0.708-0.215,1.119c0,0.412,0.072,0.785,0.215,1.12
					c0.143,0.335,0.338,0.62,0.585,0.855c0.246,0.235,0.531,0.418,0.854,0.546c0.324,0.129,0.669,0.193,1.037,0.193
					c0.419,0,0.774-0.061,1.064-0.182c0.29-0.121,0.539-0.278,0.745-0.469c0.147-0.132,0.274-0.3,0.38-0.502
					c0.107-0.202,0.189-0.428,0.248-0.678h-2.482V436.334z"/>
			</g>
			<g>
				<path style="fill:#FFFFFF;" d="M297.3,431.299c-0.006-1.224-0.959-2.121-2.189-2.14c-0.924-0.014-0.832,0.12-0.834-0.867
					c-0.003-1.097-0.007-2.194,0.003-3.292c0.003-0.379-0.112-0.691-0.362-0.976c-2.342-2.668-4.678-5.342-7.019-8.011
					c-0.12-0.137-0.275-0.244-0.414-0.366c-6.214,0-12.427,0-18.641,0c-0.794,0.293-1.14,0.868-1.138,1.709
					c0.01,3.748,0.004,7.496,0.004,11.243c0,0.556-0.003,0.589-0.55,0.551c-1.497-0.102-2.516,0.986-2.497,2.492
					c0.044,3.476,0.013,6.953,0.014,10.429c0.001,1.58,0.867,2.443,2.45,2.449c0.582,0.002,0.582,0.002,0.582,0.6
					c0,2.219-0.001,4.438,0.001,6.657c0.001,1.192,0.58,1.771,1.768,1.771c8.013,0.001,16.027,0.001,24.04,0
					c1.168,0,1.755-0.583,1.757-1.745c0.002-2.256,0-4.512,0.001-6.768c0-0.512,0.002-0.511,0.52-0.515
					c0.271-0.002,0.541,0.008,0.809-0.058c0.996-0.246,1.69-1.044,1.694-2.069C297.315,438.696,297.318,434.997,297.3,431.299z
					 M268.85,417.162c5.337,0,10.674,0,16.01,0c0.548,0,0.554,0.007,0.554,0.561c0.001,2.243-0.001,4.486,0.001,6.73
					c0.001,0.811,0.249,1.059,1.06,1.059c1.91,0.001,3.821,0,5.731,0.001c0.458,0,0.479,0.021,0.481,0.483
					c0.003,0.887,0.002,1.775,0,2.662c-0.001,0.477-0.024,0.498-0.504,0.499c-3.895,0.001-7.79,0-11.684,0
					c-3.882,0-7.765,0-11.647,0c-0.55,0-0.552-0.001-0.552-0.561c-0.001-3.624-0.001-7.247,0-10.871
					C268.299,417.166,268.303,417.162,268.85,417.162z M292.135,451.579c-3.883,0.001-7.766,0-11.65,0c-3.871,0-7.742,0-11.613,0
					c-0.572,0-0.574-0.002-0.574-0.579c-0.001-1.997-0.001-3.994,0.001-5.991c0-0.464,0.023-0.486,0.478-0.487
					c7.803-0.001,15.607-0.001,23.41,0c0.478,0,0.499,0.02,0.499,0.503c0.001,1.997,0.001,3.994,0,5.991
					C292.687,451.574,292.682,451.579,292.135,451.579z"/>
			</g>
			<g>
				<path style="fill:#FFFFFF;" d="M272.966,434.183v1.831h3.165v1.412h-3.165v1.831h3.518v1.412h-5.007v-7.897h5.007v1.412H272.966
					z"/>
				<path style="fill:#FFFFFF;" d="M277.852,440.669v-7.897h2.779c0.375,0,0.726,0.061,1.053,0.182
					c0.327,0.121,0.612,0.292,0.855,0.513c0.243,0.221,0.434,0.483,0.574,0.789c0.14,0.305,0.209,0.642,0.209,1.009
					c0,0.375-0.07,0.715-0.209,1.02c-0.14,0.305-0.331,0.568-0.574,0.789c-0.243,0.221-0.528,0.392-0.855,0.513
					c-0.327,0.121-0.678,0.182-1.053,0.182h-1.29v2.901H277.852z M280.653,436.356c0.389,0,0.684-0.111,0.882-0.331
					c0.199-0.22,0.298-0.474,0.298-0.761c0-0.14-0.024-0.276-0.072-0.408c-0.048-0.132-0.121-0.248-0.221-0.347
					c-0.099-0.099-0.222-0.178-0.37-0.237c-0.147-0.059-0.32-0.089-0.518-0.089h-1.312v2.173H280.653z"/>
				<path style="fill:#FFFFFF;" d="M286.797,440.845c-0.338,0-0.662-0.048-0.971-0.143c-0.309-0.095-0.592-0.239-0.849-0.43
					c-0.257-0.191-0.482-0.425-0.673-0.7c-0.191-0.276-0.342-0.597-0.452-0.965l1.401-0.551c0.103,0.397,0.283,0.726,0.541,0.987
					c0.257,0.261,0.595,0.392,1.015,0.392c0.154,0,0.303-0.02,0.447-0.061c0.143-0.04,0.272-0.099,0.386-0.176
					c0.114-0.077,0.204-0.175,0.27-0.292c0.066-0.118,0.1-0.254,0.1-0.408c0-0.147-0.026-0.279-0.077-0.397
					c-0.051-0.117-0.138-0.227-0.259-0.331c-0.121-0.103-0.279-0.202-0.474-0.298c-0.195-0.095-0.436-0.195-0.723-0.298
					l-0.485-0.176c-0.213-0.073-0.428-0.173-0.645-0.298c-0.217-0.125-0.414-0.276-0.59-0.452c-0.176-0.176-0.322-0.384-0.436-0.623
					c-0.114-0.239-0.171-0.509-0.171-0.81c0-0.309,0.061-0.597,0.182-0.866c0.121-0.268,0.294-0.503,0.518-0.706
					c0.224-0.202,0.493-0.36,0.805-0.474c0.312-0.114,0.66-0.171,1.042-0.171c0.397,0,0.741,0.053,1.031,0.16
					c0.29,0.107,0.537,0.243,0.739,0.408c0.202,0.165,0.365,0.348,0.491,0.546c0.125,0.199,0.217,0.386,0.276,0.563l-1.312,0.551
					c-0.074-0.221-0.208-0.419-0.403-0.596c-0.195-0.176-0.462-0.265-0.799-0.265c-0.324,0-0.592,0.075-0.805,0.226
					c-0.213,0.151-0.32,0.348-0.32,0.59c0,0.235,0.103,0.436,0.309,0.601c0.206,0.165,0.533,0.325,0.982,0.48l0.496,0.165
					c0.316,0.111,0.605,0.237,0.866,0.381c0.261,0.143,0.485,0.314,0.673,0.513c0.187,0.199,0.331,0.425,0.43,0.678
					c0.099,0.254,0.149,0.546,0.149,0.877c0,0.412-0.083,0.767-0.248,1.064c-0.165,0.298-0.377,0.542-0.634,0.734
					c-0.258,0.191-0.548,0.335-0.872,0.43C287.422,440.797,287.105,440.845,286.797,440.845z"/>
			</g>
			<g>
				<path style="fill:#FFFFFF;" d="M321.394,439.168l4.004-4.985h-3.827v-1.412h5.559v1.5l-3.96,4.985h4.004v1.412h-5.779V439.168z"
					/>
				<path style="fill:#FFFFFF;" d="M328.409,432.771h1.489v7.897h-1.489V432.771z"/>
				<path style="fill:#FFFFFF;" d="M331.486,440.669v-7.897h2.779c0.375,0,0.726,0.061,1.053,0.182
					c0.327,0.121,0.612,0.292,0.855,0.513s0.434,0.483,0.574,0.789c0.14,0.305,0.209,0.642,0.209,1.009
					c0,0.375-0.07,0.715-0.209,1.02c-0.14,0.305-0.331,0.568-0.574,0.789c-0.243,0.221-0.528,0.392-0.855,0.513
					c-0.327,0.121-0.678,0.182-1.053,0.182h-1.29v2.901H331.486z M334.288,436.356c0.389,0,0.684-0.111,0.882-0.331
					c0.199-0.22,0.298-0.474,0.298-0.761c0-0.14-0.024-0.276-0.072-0.408c-0.048-0.132-0.121-0.248-0.221-0.347
					c-0.099-0.099-0.222-0.178-0.37-0.237c-0.147-0.059-0.32-0.089-0.518-0.089h-1.312v2.173H334.288z"/>
			</g>
		</g>
		<g style="opacity:0.61;">
			<path style="fill:#FFFFFF;" d="M300.133,433.27h9.067v2.242h-9.067V433.27z M300.133,437.136h9.067v2.243h-9.067V437.136z"/>
		</g>
	</g>
	<g style="opacity:0.61;">
		<path style="fill:#FFFFFF;" d="M156.756,478.878h1.607c1.263,0,2.114,0.812,2.114,1.974c0,1.161-0.851,1.973-2.114,1.973h-1.607
			V478.878z M158.34,482.464c1.049,0,1.725-0.665,1.725-1.612c0-0.947-0.677-1.613-1.725-1.613h-1.167v3.225H158.34z"/>
		<path style="fill:#FFFFFF;" d="M165.139,480.851c0-1.15,0.879-2.007,2.075-2.007c1.184,0,2.069,0.851,2.069,2.007
			c0,1.156-0.885,2.007-2.069,2.007C166.019,482.858,165.139,482.002,165.139,480.851z M168.866,480.851
			c0-0.942-0.705-1.635-1.652-1.635c-0.953,0-1.663,0.693-1.663,1.635c0,0.941,0.71,1.635,1.663,1.635
			C168.162,482.486,168.866,481.793,168.866,480.851z"/>
		<path style="fill:#FFFFFF;" d="M179.596,478.878l-1.331,3.947h-0.44l-1.156-3.366l-1.161,3.366h-0.434l-1.331-3.947h0.429
			l1.139,3.394l1.178-3.394h0.389l1.161,3.411l1.156-3.411H179.596z"/>
		<path style="fill:#FFFFFF;" d="M187.731,478.878v3.947h-0.344l-2.537-3.202v3.202h-0.417v-3.947h0.344l2.543,3.203v-3.203H187.731
			z"/>
		<path style="fill:#FFFFFF;" d="M193.093,478.878h0.417v3.586h2.21v0.361h-2.627V478.878z"/>
		<path style="fill:#FFFFFF;" d="M200.061,480.851c0-1.15,0.879-2.007,2.075-2.007c1.184,0,2.069,0.851,2.069,2.007
			c0,1.156-0.885,2.007-2.069,2.007C200.941,482.858,200.061,482.002,200.061,480.851z M203.788,480.851
			c0-0.942-0.705-1.635-1.652-1.635c-0.953,0-1.663,0.693-1.663,1.635c0,0.941,0.71,1.635,1.663,1.635
			C203.083,482.486,203.788,481.793,203.788,480.851z"/>
		<path style="fill:#FFFFFF;" d="M211.636,481.77h-2.199l-0.474,1.054h-0.434l1.804-3.947h0.412l1.804,3.947h-0.44L211.636,481.77z
			 M211.484,481.432l-0.947-2.12l-0.947,2.12H211.484z"/>
		<path style="fill:#FFFFFF;" d="M217.28,478.878h1.607c1.263,0,2.114,0.812,2.114,1.974c0,1.161-0.851,1.973-2.114,1.973h-1.607
			V478.878z M218.864,482.464c1.049,0,1.725-0.665,1.725-1.612c0-0.947-0.677-1.613-1.725-1.613h-1.167v3.225H218.864z"/>
		<path style="fill:#FFFFFF;" d="M234.041,481.77h-2.199l-0.474,1.054h-0.434l1.804-3.947h0.412l1.804,3.947h-0.44L234.041,481.77z
			 M233.889,481.432l-0.947-2.12l-0.947,2.12H233.889z"/>
		<path style="fill:#FFFFFF;" d="M239.685,478.878h0.417v3.586h2.21v0.361h-2.627V478.878z"/>
		<path style="fill:#FFFFFF;" d="M247.082,478.878h0.417v3.586h2.21v0.361h-2.627V478.878z"/>
		<path style="fill:#FFFFFF;" d="M260.449,479.239v1.551h2.041v0.361h-2.041v1.675h-0.417v-3.947h2.706v0.361H260.449z"/>
		<path style="fill:#FFFFFF;" d="M267.678,478.878h0.417v3.947h-0.417V478.878z"/>
		<path style="fill:#FFFFFF;" d="M273.456,478.878h0.417v3.586h2.21v0.361h-2.627V478.878z"/>
		<path style="fill:#FFFFFF;" d="M283.644,482.464v0.361h-2.791v-3.947h2.706v0.361h-2.289v1.404h2.041v0.355h-2.041v1.466H283.644z
			"/>
		<path style="fill:#FFFFFF;" d="M294.672,479.239v1.551h2.041v0.361h-2.041v1.675h-0.417v-3.947h2.706v0.361H294.672z"/>
		<path style="fill:#FFFFFF;" d="M301.5,480.851c0-1.15,0.879-2.007,2.075-2.007c1.184,0,2.069,0.851,2.069,2.007
			c0,1.156-0.885,2.007-2.069,2.007C302.379,482.858,301.5,482.002,301.5,480.851z M305.226,480.851
			c0-0.942-0.705-1.635-1.652-1.635c-0.953,0-1.663,0.693-1.663,1.635c0,0.941,0.71,1.635,1.663,1.635
			C304.522,482.486,305.226,481.793,305.226,480.851z"/>
		<path style="fill:#FFFFFF;" d="M313.351,482.825l-0.902-1.269c-0.102,0.011-0.203,0.017-0.316,0.017h-1.06v1.252h-0.417v-3.947
			h1.477c1.004,0,1.613,0.507,1.613,1.353c0,0.62-0.327,1.054-0.902,1.24l0.964,1.353H313.351z M313.328,480.231
			c0-0.632-0.417-0.992-1.207-0.992h-1.048v1.979h1.048C312.911,481.218,313.328,480.851,313.328,480.231z"/>
		<path style="fill:#FFFFFF;" d="M322.907,478.878v3.947h-0.4v-3.158l-1.551,2.656h-0.197l-1.551-2.639v3.14h-0.4v-3.947h0.344
			l1.714,2.926l1.697-2.926H322.907z"/>
		<path style="fill:#FFFFFF;" d="M330.744,481.77h-2.199l-0.473,1.054h-0.434l1.804-3.947h0.411l1.804,3.947h-0.44L330.744,481.77z
			 M330.592,481.432l-0.947-2.12l-0.947,2.12H330.592z"/>
		<path style="fill:#FFFFFF;" d="M336.957,479.239h-1.387v-0.361h3.192v0.361h-1.387v3.586h-0.417V479.239z"/>
		<path style="fill:#FFFFFF;" d="M343.063,482.346l0.164-0.321c0.282,0.276,0.784,0.479,1.302,0.479c0.739,0,1.06-0.31,1.06-0.699
			c0-1.083-2.43-0.417-2.43-1.877c0-0.581,0.451-1.083,1.455-1.083c0.446,0,0.908,0.13,1.224,0.35l-0.141,0.333
			c-0.338-0.22-0.733-0.327-1.083-0.327c-0.722,0-1.043,0.321-1.043,0.716c0,1.083,2.43,0.429,2.43,1.866
			c0,0.581-0.462,1.077-1.472,1.077C343.937,482.858,343.356,482.65,343.063,482.346z"/>
	</g>
</g>
<g>
</g>
<g>
	<g>
		<defs>
			<path id="SVGID_1_" d="M50.341,289.836c-6.79,0-9.733-3.966-10.156-9.589c0.471,6.327,2.261,15.178,9.758,19.9
				c1.56,0.986,3.381,1.809,5.485,2.409c1.254,0.359,2.606,0.641,4.07,0.834c4.84-1.761,9.044-4.637,15.345-14.792
				c-1.664-1.506-7.75-13.507-8.365-15C64.803,283.498,57.55,289.836,50.341,289.836z"/>
		</defs>
		<clipPath id="SVGID_2_">
			<use xlink:href="#SVGID_1_"  style="overflow:visible;"/>
		</clipPath>
		<linearGradient id="SVGID_3_" gradientUnits="userSpaceOnUse" x1="46.9846" y1="297.8682" x2="69.9272" y2="277.446">
			<stop  offset="0" style="stop-color:#EC3D82"/>
			<stop  offset="1" style="stop-color:#67519F"/>
		</linearGradient>
		<rect x="40.186" y="273.599" style="clip-path:url(#SVGID_2_);fill:url(#SVGID_3_);" width="34.658" height="29.792"/>
	</g>
	<g>
		<defs>
			<path id="SVGID_4_" d="M105.897,304.543h0.179c3.768-0.008,7.946-0.268,11.959-1.045c0.007,0,0.014-0.003,0.029-0.003
				c1.05-0.204,2.083-0.448,3.098-0.723c-20.933-2.921-30.051-12.824-34.265-17.546c-0.481-0.549-0.941-1.123-1.39-1.716
				c-0.277-0.327-0.566-0.634-0.826-0.968c-0.73-0.934-1.397-1.92-1.998-2.958c-0.36-0.611-0.697-1.238-1.019-1.882
				c-0.412-0.834-0.779-1.713-1.116-2.603c-1.434-3.743-2.239-7.917-2.372-12.364c-0.015-0.3-0.022-0.597-0.029-0.89
				c0-0.163-0.011-0.325-0.011-0.493c0-0.175,0-0.352,0.007-0.526c0.007-0.664,0.033-1.315,0.073-1.965
				c0-0.074,0.007-0.151,0.012-0.226c0.037-0.626,0.088-1.252,0.155-1.872c1.623-15.081,11.397-26.278,28.714-26.278
				c4.414,0,7.95,0.645,11.115,1.712c-0.755-0.299-1.508-0.592-2.279-0.859c-5.179-1.805-10.73-2.802-16.227-2.802
				c-9.636,0-19.117,3.054-26.196,10.129c-4.833,4.837-8.714,12.11-9.971,19.284c-0.048,0.768-0.089,1.538-0.104,2.314l-0.015,0.92
				v0.017v0.017v0.017v0.018v0.017v0.017v0.017v0.018v0.017v0.017v0.125c0.006,2.633,0.203,5.211,0.582,7.699
				c0.381,2.48,1.271,6.167,2.943,10.237c0.619,1.493,1.331,3.028,2.169,4.585c0.96,1.764,2.068,3.547,3.358,5.281
				c1.375,1.76,2.906,3.402,4.57,4.904C84.233,300.666,94.044,304.543,105.897,304.543"/>
		</defs>
		<clipPath id="SVGID_5_">
			<use xlink:href="#SVGID_4_"  style="overflow:visible;"/>
		</clipPath>
		<linearGradient id="SVGID_6_" gradientUnits="userSpaceOnUse" x1="92.2914" y1="228.5362" x2="92.2914" y2="304.543">
			<stop  offset="0" style="stop-color:#ED402F"/>
			<stop  offset="1" style="stop-color:#EC3D82"/>
		</linearGradient>
		<rect x="63.421" y="228.536" style="clip-path:url(#SVGID_5_);fill:url(#SVGID_6_);" width="57.742" height="76.007"/>
	</g>
	<g>
		<defs>
			<path id="SVGID_7_" d="M25,202.039l0.007,66.325c0,6.312,1.375,21.268,6.205,27.625c2.468,3.232,5.674,5.6,9.24,7.101
				c2.972,1.253,6.193,1.902,9.443,1.95c1.868,0.033,3.733-0.145,5.571-0.504c0.738-0.145,1.471-0.315,2.198-0.519
				c0.633-0.182,1.264-0.389,1.878-0.619c-1.482-0.193-2.846-0.475-4.114-0.842c-2.104-0.6-3.925-1.424-5.485-2.409
				c-7.524-4.736-9.592-13.443-9.992-21.734v-47.856h18.837c3.324,0,6.019-2.692,6.019-6.053c0-3.325-2.695-6.042-6.019-6.042
				H39.952v-16.422c0-4-3.154-7.276-7.402-7.276C28.303,194.764,25,198.039,25,202.039"/>
		</defs>
		<clipPath id="SVGID_8_">
			<use xlink:href="#SVGID_7_"  style="overflow:visible;"/>
		</clipPath>
		<linearGradient id="SVGID_9_" gradientUnits="userSpaceOnUse" x1="44.9037" y1="194.7635" x2="44.9037" y2="305.0727">
			<stop  offset="0" style="stop-color:#ED402F"/>
			<stop  offset="1" style="stop-color:#EC3D82"/>
		</linearGradient>
		<rect x="25" y="194.764" style="clip-path:url(#SVGID_8_);fill:url(#SVGID_9_);" width="39.807" height="110.309"/>
	</g>
	<g>
		<defs>
			<path id="SVGID_10_" d="M25,202.039v2.745l0.011,41.535c0-17.009,6.512-27.858,14.94-27.858v-16.422c0-4-3.154-7.276-7.402-7.276
				C28.303,194.764,25,198.039,25,202.039"/>
		</defs>
		<clipPath id="SVGID_11_">
			<use xlink:href="#SVGID_10_"  style="overflow:visible;"/>
		</clipPath>
		<linearGradient id="SVGID_12_" gradientUnits="userSpaceOnUse" x1="32.4758" y1="194.7635" x2="32.4758" y2="246.3192">
			<stop  offset="0" style="stop-color:#FFC906"/>
			<stop  offset="1" style="stop-color:#EF5A2F"/>
		</linearGradient>
		<rect x="25" y="194.764" style="clip-path:url(#SVGID_11_);fill:url(#SVGID_12_);" width="14.952" height="51.556"/>
	</g>
	<g>
		<defs>
			<path id="SVGID_13_" d="M158.245,222.551c0.003-0.009,0.007-0.009,0.01-0.016C158.253,222.542,158.249,222.542,158.245,222.551
				 M158.256,222.535l0.023-0.022L158.256,222.535z"/>
		</defs>
		<clipPath id="SVGID_14_">
			<use xlink:href="#SVGID_13_"  style="overflow:visible;"/>
		</clipPath>
		<linearGradient id="SVGID_15_" gradientUnits="userSpaceOnUse" x1="144.4202" y1="222.5319" x2="172.107" y2="222.5319">
			<stop  offset="0" style="stop-color:#88C44E"/>
			<stop  offset="0.17" style="stop-color:#6DC38B"/>
			<stop  offset="0.34" style="stop-color:#52C2C9"/>
			<stop  offset="0.52" style="stop-color:#64ABCA"/>
			<stop  offset="0.69" style="stop-color:#7595CC"/>
			<stop  offset="0.85" style="stop-color:#8188C1"/>
			<stop  offset="1" style="stop-color:#8C7BB5"/>
		</linearGradient>
		<rect x="158.245" y="222.513" style="clip-path:url(#SVGID_14_);fill:url(#SVGID_15_);" width="0.034" height="0.038"/>
	</g>
	<g>
		<defs>
			<path id="SVGID_16_" d="M187.589,301.408c0.004,0,0.004,0,0.007-0.004C187.593,301.404,187.593,301.404,187.589,301.408z
				 M187.596,301.404c0-0.004,0.004-0.004,0.007-0.007C187.6,301.4,187.596,301.4,187.596,301.404z M187.603,301.397
				c0.004,0,0.004-0.004,0.007-0.004C187.608,301.392,187.603,301.397,187.603,301.397z M187.611,301.392
				c0.004,0,0.004-0.003,0.004-0.003L187.611,301.392z M187.615,301.389c0.004,0,0.007,0,0.012,0
				C187.622,301.389,187.622,301.389,187.615,301.389z M187.626,301.389c0.022-0.012,0.037-0.019,0.063-0.026
				C187.663,301.37,187.644,301.378,187.626,301.389z"/>
		</defs>
		<clipPath id="SVGID_17_">
			<use xlink:href="#SVGID_16_"  style="overflow:visible;"/>
		</clipPath>
		<linearGradient id="SVGID_18_" gradientUnits="userSpaceOnUse" x1="196.7917" y1="301.3855" x2="334.5215" y2="301.3855">
			<stop  offset="0" style="stop-color:#88C44E"/>
			<stop  offset="0.17" style="stop-color:#6DC38B"/>
			<stop  offset="0.34" style="stop-color:#52C2C9"/>
			<stop  offset="0.52" style="stop-color:#64ABCA"/>
			<stop  offset="0.69" style="stop-color:#7595CC"/>
			<stop  offset="0.85" style="stop-color:#8188C1"/>
			<stop  offset="1" style="stop-color:#8C7BB5"/>
		</linearGradient>
		<rect x="187.589" y="301.363" style="clip-path:url(#SVGID_17_);fill:url(#SVGID_18_);" width="0.101" height="0.045"/>
	</g>
	<g>
		<defs>
			<path id="SVGID_19_" d="M192.196,292.41v-0.102c0-7.091-3.576-13.169-8.943-18.246c-1.727-1.632-3.143-3.348-5.556-4.604
				c4.292,3.21,6.4,7.05,6.4,12.079c0,7.543-5.262,11.008-13.409,11.008c-6.579,0-11.12-2.154-14.478-3.466
				c-5.378-2.035-9.202,1.668-9.202,5.504c-0.004,2.576,1.819,4.299,3.95,5.434c2.061,1.104,4.337,1.949,6.56,2.653
				c4.526,1.446,9.274,1.957,14.014,1.957c3.217,0,6.456-0.211,9.607-0.893c2.943-0.63,6.323-1.671,8.624-3.71
				c0.257-0.223,0.49-0.471,0.686-0.749C191.836,297.284,192.185,294.571,192.196,292.41"/>
		</defs>
		<clipPath id="SVGID_20_">
			<use xlink:href="#SVGID_19_"  style="overflow:visible;"/>
		</clipPath>
		<linearGradient id="SVGID_21_" gradientUnits="userSpaceOnUse" x1="185.9719" y1="276.4063" x2="149.575" y2="300.0531">
			<stop  offset="0" style="stop-color:#EC3D82"/>
			<stop  offset="1" style="stop-color:#67519F"/>
		</linearGradient>
		<rect x="147.004" y="269.458" style="clip-path:url(#SVGID_20_);fill:url(#SVGID_21_);" width="45.192" height="35.17"/>
	</g>
	<g>
		<defs>
			<path id="SVGID_22_" d="M118.035,303.498c0.007,0,0.014-0.003,0.029-0.003C118.049,303.494,118.042,303.498,118.035,303.498z"/>
		</defs>
		<clipPath id="SVGID_23_">
			<use xlink:href="#SVGID_22_"  style="overflow:visible;"/>
		</clipPath>
		<linearGradient id="SVGID_24_" gradientUnits="userSpaceOnUse" x1="-24.814" y1="303.4962" x2="175.9987" y2="303.4962">
			<stop  offset="0" style="stop-color:#88C44E"/>
			<stop  offset="0.17" style="stop-color:#6DC38B"/>
			<stop  offset="0.34" style="stop-color:#52C2C9"/>
			<stop  offset="0.52" style="stop-color:#64ABCA"/>
			<stop  offset="0.69" style="stop-color:#7595CC"/>
			<stop  offset="0.85" style="stop-color:#8188C1"/>
			<stop  offset="1" style="stop-color:#8C7BB5"/>
		</linearGradient>
		<rect x="118.035" y="303.494" style="clip-path:url(#SVGID_23_);fill:url(#SVGID_24_);" width="0.029" height="0.003"/>
	</g>
	<g>
		<defs>
			<path id="SVGID_25_" d="M155.295,225.297l0.003-0.004L155.295,225.297z"/>
		</defs>
		<clipPath id="SVGID_26_">
			<use xlink:href="#SVGID_25_"  style="overflow:visible;"/>
		</clipPath>
		<linearGradient id="SVGID_27_" gradientUnits="userSpaceOnUse" x1="155.1688" y1="225.2948" x2="155.4282" y2="225.2948">
			<stop  offset="0" style="stop-color:#88C44E"/>
			<stop  offset="0.17" style="stop-color:#6DC38B"/>
			<stop  offset="0.34" style="stop-color:#52C2C9"/>
			<stop  offset="0.52" style="stop-color:#64ABCA"/>
			<stop  offset="0.69" style="stop-color:#7595CC"/>
			<stop  offset="0.85" style="stop-color:#8188C1"/>
			<stop  offset="1" style="stop-color:#8C7BB5"/>
		</linearGradient>
		<rect x="155.295" y="225.293" style="clip-path:url(#SVGID_26_);fill:url(#SVGID_27_);" width="0.003" height="0.004"/>
	</g>
	<g>
		<defs>
			<path id="SVGID_28_" d="M155.299,225.293l-0.003,0.004c-0.293,0.251-0.567,0.522-0.827,0.801
				c-2.072,1.997-3.743,4.34-5.066,6.898c-1.191,2.257-2.125,4.663-2.899,7.072c-0.868,2.713-1.572,5.496-2.195,8.317
				c-2.083,9.34-3.402,18.995-7.857,27.116c-3.566,6.482-8.866,11.042-15.519,14.218c-3.918,1.73-8.209,2.861-13.836,2.861
				c-2.71,0-5.23-0.274-7.569-0.811c-5.856-1.327-10.538-4.24-14.022-8.258c0.448,0.592,0.909,1.167,1.39,1.716
				c4.214,4.722,13.333,14.626,34.265,17.546c2.054-0.56,4.019-1.279,5.809-2.198c2.049-1.053,3.984-2.253,5.818-3.569
				c2.91-2.117,5.546-4.534,7.891-7.217c3.814-4.337,6.854-9.333,9.122-14.707c0.889-2.12,1.667-4.3,2.308-6.527
				c0.36-1.219,0.69-2.458,0.99-3.691c0.982-3.937,2.032-9.044,2.877-13.044c0.019-0.077-3.006-7.723-3.214-12.409
				c-0.141-3.146,0.371-6.456,1.349-9.684c0.237-1.519,0.66-2.128,1.36-3.536c0.06-0.126,0.234-0.252,0.301-0.378
				c0.089-0.074,1.116-0.797,0.823-0.985l1.846-2.035C158.194,222.976,155.525,225.089,155.299,225.293z"/>
		</defs>
		<clipPath id="SVGID_29_">
			<use xlink:href="#SVGID_28_"  style="overflow:visible;"/>
		</clipPath>
		<linearGradient id="SVGID_30_" gradientUnits="userSpaceOnUse" x1="90.7187" y1="289.6756" x2="162.697" y2="227.7417">
			<stop  offset="0" style="stop-color:#EC3D82"/>
			<stop  offset="1" style="stop-color:#67519F"/>
		</linearGradient>
		<rect x="85.507" y="222.791" style="clip-path:url(#SVGID_29_);fill:url(#SVGID_30_);" width="72.935" height="79.98"/>
	</g>
	<g>
		<defs>
			<path id="SVGID_31_" d="M93.205,220.138c-3.454,0.993-7.064,2.357-10.115,4.289c-2.969,1.875-5.723,4.069-8.169,6.556
				c-0.359,0.367-0.738,0.723-1.082,1.105c-1.268,1.389-2.431,2.88-3.466,4.455c-0.633,0.971-1.226,1.975-1.771,3.009l-0.007,0.007
				c-2.884,5.445-4.619,11.687-5.056,18.391c1.257-7.174,5.138-14.447,9.971-19.284c11.119-11.116,28.165-12.298,42.423-7.327
				c0.771,0.267,1.524,0.56,2.279,0.859c1.727,0.686,3.418,1.453,5.07,2.28c0.478,0.241,0.967,0.497,1.445,0.759
				c1.075,0.604,2.157,1.079,3.592,1.079c0.53,0,1.044-0.074,1.534-0.218c2.528-0.705,4.448-3.122,4.448-6.123
				c0-2.276-1.075-3.706-2.746-4.907c-5.2-3.743-12.001-5.293-18.247-6.086c-2.579-0.323-5.151-0.512-7.709-0.512
				C101.433,218.469,97.297,218.959,93.205,220.138z"/>
		</defs>
		<clipPath id="SVGID_32_">
			<use xlink:href="#SVGID_31_"  style="overflow:visible;"/>
		</clipPath>
		<linearGradient id="SVGID_33_" gradientUnits="userSpaceOnUse" x1="63.5392" y1="238.2092" x2="134.3017" y2="238.2092">
			<stop  offset="0" style="stop-color:#FFC906"/>
			<stop  offset="1" style="stop-color:#EF5A2F"/>
		</linearGradient>
		<rect x="63.539" y="218.469" style="clip-path:url(#SVGID_32_);fill:url(#SVGID_33_);" width="70.763" height="39.481"/>
	</g>
	<g>
		<defs>
			<path id="SVGID_34_" d="M169.791,218.725c-3.309,0.356-6.579,1.215-9.485,2.875c-0.17,0.101-0.345,0.204-0.519,0.308l-0.67,0.419
				c-2.579,1.586-4.243,4.359-5.126,7.194c-0.563,1.817-0.86,3.751-0.378,5.619c0.76,2.914,3.192,5.07,5.686,6.753
				c4.421,2.984,9.399,5.051,13.925,7.872c-2.38-1.786-4.719-3.751-6.223-6.319c-1.506-2.569-2.047-5.871-0.72-8.532
				c1.064-2.127,3.202-3.595,5.497-4.248c2.295-0.644,4.733-0.559,7.09-0.199c2.713,0.415,5.363,1.179,7.958,2.082
				c1.318,0.46,2.661,0.964,4.059,0.957c1.672-0.023,3.32-0.834,4.355-2.146c1.037-1.315,1.437-3.106,1.063-4.736
				c-0.6-2.58-2.917-4.408-5.33-5.501c-3.454-1.57-7.293-2.06-11.082-2.364c-1.875-0.152-3.769-0.264-5.66-0.264
				C172.749,218.495,171.266,218.562,169.791,218.725z"/>
		</defs>
		<clipPath id="SVGID_35_">
			<use xlink:href="#SVGID_34_"  style="overflow:visible;"/>
		</clipPath>
		<linearGradient id="SVGID_36_" gradientUnits="userSpaceOnUse" x1="153.6121" y1="234.1307" x2="196.1986" y2="234.1307">
			<stop  offset="0" style="stop-color:#FFC906"/>
			<stop  offset="1" style="stop-color:#EF5A2F"/>
		</linearGradient>
		<rect x="153.131" y="218.495" style="clip-path:url(#SVGID_35_);fill:url(#SVGID_36_);" width="43.546" height="31.271"/>
	</g>
	<g>
		<defs>
			<path id="SVGID_37_" d="M156.359,252.461c2.316,3.739,5.96,6.338,9.5,8.814c3.896,2.724,7.765,5.474,11.73,8.11
				c2.772,1.838,5.237,4.128,7.417,6.641c3.958,4.559,7.406,10.278,7.124,16.56c-0.052,1.135-0.189,2.265-0.516,3.352
				c-0.556,1.838-1.738,4.246-3.457,5.266c8.743-5.188,12.353-15.281,10.085-25.051c-2.201-9.474-9.796-15.893-17.349-21.349
				c-1.506-1.086-3.044-2.142-4.604-3.154c-1.56-1.016-3.146-1.968-4.755-2.899c-1.315-0.763-2.617-1.549-3.918-2.334
				c-1.838-1.101-3.669-2.213-5.441-3.406c-2.824-1.902-5.741-4.163-7.261-7.295c-0.941-1.938-1.301-3.988-0.978-5.997
				C151.763,236.875,152.334,245.956,156.359,252.461z"/>
		</defs>
		<clipPath id="SVGID_38_">
			<use xlink:href="#SVGID_37_"  style="overflow:visible;"/>
		</clipPath>
		<linearGradient id="SVGID_39_" gradientUnits="userSpaceOnUse" x1="152.0187" y1="231.9131" x2="196.5697" y2="293.8841">
			<stop  offset="0" style="stop-color:#ED402F"/>
			<stop  offset="1" style="stop-color:#EC3D82"/>
		</linearGradient>
		<rect x="151.763" y="229.718" style="clip-path:url(#SVGID_38_);fill:url(#SVGID_39_);" width="48.746" height="71.485"/>
	</g>
	<path style="fill:#057DC1;" d="M259.485,226.768c0,4.636-3.38,8.269-8.769,8.269c-5.137,0-8.521-3.633-8.521-8.269
		c0-4.759,3.506-8.395,8.647-8.395C256.106,218.373,259.364,222.009,259.485,226.768 M243.071,243.81h15.537v61.022h-15.537V243.81z
		"/>
	<path style="fill:#057DC1;" d="M408.088,304.707v-84.454h17.542l21.8,36.211c5.642,9.4,10.527,19.174,14.41,28.321h0.252
		c-1-11.279-1.378-22.179-1.378-35.085v-29.447H475v84.454h-15.912l-22.053-37.091c-5.393-9.273-11.027-19.669-15.163-29.195
		l-0.378,0.126c0.63,10.9,0.752,22.053,0.752,35.963v30.196H408.088z"/>
	<g>
		<defs>
			<path id="SVGID_40_" d="M272.847,257.139v9.685c0,31.177,20.289,38.416,48.091,38.413h20.981
				c27.794,0,48.087-7.236,48.087-38.413v-9.685c0-28.454-16.905-36.968-40.989-38.232v13.164
				c12.965,1.38,21.512,7.302,21.512,25.997v7.821c0,22.089-11.934,26.359-28.991,26.359h-20.174
				c-17.053,0-28.994-3.339-28.994-25.425v-9.685c0-18.67,8.532-23.937,21.482-25.126v-13.106
				C289.756,220.171,272.847,228.684,272.847,257.139"/>
		</defs>
		<clipPath id="SVGID_41_">
			<use xlink:href="#SVGID_40_"  style="overflow:visible;"/>
		</clipPath>
		<linearGradient id="SVGID_42_" gradientUnits="userSpaceOnUse" x1="331.427" y1="305.2398" x2="331.427" y2="218.907">
			<stop  offset="0" style="stop-color:#ED402F"/>
			<stop  offset="1" style="stop-color:#EC3D82"/>
		</linearGradient>
		<rect x="272.847" y="218.907" style="clip-path:url(#SVGID_41_);fill:url(#SVGID_42_);" width="117.159" height="86.333"/>
	</g>
	<g>
		<defs>
			<path id="SVGID_43_" d="M341.041,244.959v-30.147c0-5.293-4.336-9.618-9.614-9.618c-5.285,0-9.61,4.325-9.61,9.618v30.147
				c0,5.293,4.326,9.618,9.61,9.618C336.705,254.577,341.041,250.244,341.041,244.959"/>
		</defs>
		<clipPath id="SVGID_44_">
			<use xlink:href="#SVGID_43_"  style="overflow:visible;"/>
		</clipPath>
		<linearGradient id="SVGID_45_" gradientUnits="userSpaceOnUse" x1="331.4287" y1="254.577" x2="331.4287" y2="205.1933">
			<stop  offset="0" style="stop-color:#ED402F"/>
			<stop  offset="1" style="stop-color:#EC3D82"/>
		</linearGradient>
		<rect x="321.816" y="205.193" style="clip-path:url(#SVGID_44_);fill:url(#SVGID_45_);" width="19.225" height="49.384"/>
	</g>
	<g>
		<defs>
			<path id="SVGID_46_" d="M323.247,305.196h17.916c23.732,0,41.06-6.179,41.06-32.802v-8.265c0-23.58-13.595-31.119-33.195-32.528
				v0.427c12.965,1.378,21.514,7.309,21.514,25.997v7.824c0,12.769-3.991,19.578-10.658,23.054
				c-4.396,4.1-11.064,5.204-19.051,5.204h-17.22c-7.217,0-13.357-0.708-17.721-3.707c-8.361-2.695-13.517-9.117-13.517-23.621
				v-9.685c0-18.669,8.535-23.936,21.485-25.122v-0.245c-18.78,1.693-31.671,9.444-31.671,32.401v8.269
				C282.191,299.017,299.515,305.196,323.247,305.196"/>
		</defs>
		<clipPath id="SVGID_47_">
			<use xlink:href="#SVGID_46_"  style="overflow:visible;"/>
		</clipPath>
		<linearGradient id="SVGID_48_" gradientUnits="userSpaceOnUse" x1="332.2072" y1="305.1957" x2="332.2072" y2="231.6007">
			<stop  offset="0" style="stop-color:#EC3D82"/>
			<stop  offset="1" style="stop-color:#67519F"/>
		</linearGradient>
		<rect x="282.191" y="231.601" style="clip-path:url(#SVGID_47_);fill:url(#SVGID_48_);" width="100.033" height="73.595"/>
	</g>
	<g>
		<defs>
			<path id="SVGID_49_" d="M313.852,232.013v-13.106c-24.095,1.264-41.004,9.777-41.004,38.232v9.685
				c0,1.238,0.041,2.428,0.112,3.588c1.301-25.322,15.84-35.067,37.012-37.879C311.216,232.306,312.51,232.134,313.852,232.013"/>
		</defs>
		<clipPath id="SVGID_50_">
			<use xlink:href="#SVGID_49_"  style="overflow:visible;"/>
		</clipPath>
		<linearGradient id="SVGID_51_" gradientUnits="userSpaceOnUse" x1="293.3495" y1="270.4111" x2="293.3495" y2="218.907">
			<stop  offset="0" style="stop-color:#E25526"/>
			<stop  offset="0.29" style="stop-color:#EC8720"/>
			<stop  offset="0.58" style="stop-color:#F6B919"/>
			<stop  offset="0.72" style="stop-color:#F8BE18"/>
			<stop  offset="0.88" style="stop-color:#F9C417"/>
			<stop  offset="1" style="stop-color:#F9C417"/>
		</linearGradient>
		<rect x="272.847" y="218.907" style="clip-path:url(#SVGID_50_);fill:url(#SVGID_51_);" width="41.004" height="51.504"/>
	</g>
	<g>
		<defs>
			<path id="SVGID_52_" d="M390.014,267.054v-0.231v-9.685c0-28.454-16.905-36.968-41-38.232v13.106
				c1.345,0.122,2.638,0.293,3.884,0.519c21.163,2.812,35.707,12.557,37.011,37.879C389.969,269.324,390.009,268.21,390.014,267.054
				"/>
		</defs>
		<clipPath id="SVGID_53_">
			<use xlink:href="#SVGID_52_"  style="overflow:visible;"/>
		</clipPath>
		<linearGradient id="SVGID_54_" gradientUnits="userSpaceOnUse" x1="369.5142" y1="270.4111" x2="369.5142" y2="218.907">
			<stop  offset="0" style="stop-color:#E25526"/>
			<stop  offset="0.29" style="stop-color:#EC8720"/>
			<stop  offset="0.58" style="stop-color:#F6B919"/>
			<stop  offset="0.72" style="stop-color:#F8BE18"/>
			<stop  offset="0.88" style="stop-color:#F9C417"/>
			<stop  offset="1" style="stop-color:#F9C417"/>
		</linearGradient>
		<rect x="349.014" y="218.907" style="clip-path:url(#SVGID_53_);fill:url(#SVGID_54_);" width="41" height="51.504"/>
	</g>
</g>
</svg>
